# xmcd
#
# Track frame offsets: 
#        150
#        14060
#        25544
#        37108
#        49195
#        61977
#        75818
#        87577
#        99183
#        111341
#        122121
#        136451
#        146376
#        159562
#
# Disc length: 2344 seconds
#
# Revision: 0
# Processed by: cddbd v1.5.2PL0 Copyright (c) Steve Scherf et al.
# Submitted via: ExactAudioCopy v1.3
#
DISCID=b409260e
DTITLE=The Lost Counts - The Lost Counts
DYEAR=2016
DGENRE=Blues
TTITLE0=Soup Kitchen
TTITLE1=I'm A Fool To Care
TTITLE2=Ain't Got You
TTITLE3=Loud Mouth Annie
TTITLE4=Bobby Perkins Twist
TTITLE5=Is There A Doctor In The House?
TTITLE6=Wasted Time
TTITLE7=Fun In The Sun
TTITLE8=Neon Lights
TTITLE9=Have Mercy, Baby!
TTITLE10=Knocked Out
TTITLE11=Cattle Call
TTITLE12=Bad Ideas and New Cliches
TTITLE13=Hoppin' Dogs
EXTD=
EXTT0=
EXTT1=
EXTT2=
EXTT3=
EXTT4=
EXTT5=
EXTT6=
EXTT7=
EXTT8=
EXTT9=
EXTT10=
EXTT11=
EXTT12=
EXTT13=
PLAYORDER=
